<svg width="16" height="16" viewBox="0 0 16 16" fill="none" xmlns="http://www.w3.org/2000/svg">
<path d="M11.5 4C11.5 4.13261 11.5527 4.25979 11.6464 4.35355C11.7402 4.44732 11.8674 4.5 12 4.5H13.75C13.9489 4.5 14.1397 4.57902 14.2803 4.71967C14.421 4.86032 14.5 5.05109 14.5 5.25C14.5 5.44891 14.421 5.63968 14.2803 5.78033C14.1397 5.92098 13.9489 6 13.75 6H12C11.4696 6 10.9609 5.78929 10.5858 5.41421C10.2107 5.03914 10 4.53043 10 4V2.25C10 2.05109 10.079 1.86032 10.2197 1.71967C10.3603 1.57902 10.5511 1.5 10.75 1.5C10.9489 1.5 11.1397 1.57902 11.2803 1.71967C11.421 1.86032 11.5 2.05109 11.5 2.25V4ZM11.5 12C11.5 11.8674 11.5527 11.7402 11.6464 11.6464C11.7402 11.5527 11.8674 11.5 12 11.5H13.75C13.9489 11.5 14.1397 11.421 14.2803 11.2803C14.421 11.1397 14.5 10.9489 14.5 10.75C14.5 10.5511 14.421 10.3603 14.2803 10.2197C14.1397 10.079 13.9489 10 13.75 10H12C11.4696 10 10.9609 10.2107 10.5858 10.5858C10.2107 10.9609 10 11.4696 10 12V13.75C10 13.9489 10.079 14.1397 10.2197 14.2803C10.3603 14.421 10.5511 14.5 10.75 14.5C10.9489 14.5 11.1397 14.421 11.2803 14.2803C11.421 14.1397 11.5 13.9489 11.5 13.75V12ZM4 11.5C4.13261 11.5 4.25979 11.5527 4.35355 11.6464C4.44732 11.7402 4.5 11.8674 4.5 12V13.75C4.5 13.9489 4.57902 14.1397 4.71967 14.2803C4.86032 14.421 5.05109 14.5 5.25 14.5C5.44891 14.5 5.63968 14.421 5.78033 14.2803C5.92098 14.1397 6 13.9489 6 13.75V12C6 11.4696 5.78929 10.9609 5.41421 10.5858C5.03914 10.2107 4.53043 10 4 10H2.25C2.05109 10 1.86032 10.079 1.71967 10.2197C1.57902 10.3603 1.5 10.5511 1.5 10.75C1.5 10.9489 1.57902 11.1397 1.71967 11.2803C1.86032 11.421 2.05109 11.5 2.25 11.5H4ZM4.5 4C4.5 4.13261 4.44732 4.25979 4.35355 4.35355C4.25979 4.44732 4.13261 4.5 4 4.5H2.25C2.05109 4.5 1.86032 4.57902 1.71967 4.71967C1.57902 4.86032 1.5 5.05109 1.5 5.25C1.5 5.44891 1.57902 5.63968 1.71967 5.78033C1.86032 5.92098 2.05109 6 2.25 6H4C4.53043 6 5.03914 5.78929 5.41421 5.41421C5.78929 5.03914 6 4.53043 6 4V2.25C6 2.05109 5.92098 1.86032 5.78033 1.71967C5.63968 1.57902 5.44891 1.5 5.25 1.5C5.05109 1.5 4.86032 1.57902 4.71967 1.71967C4.57902 1.86032 4.5 2.05109 4.5 2.25V4Z" fill="white"/>
</svg>
