<svg width="40" height="40" viewBox="0 0 40 40" fill="none" xmlns="http://www.w3.org/2000/svg">
<path d="M26.6666 14.1667C28.8883 17.13 28.8883 22.87 26.6666 25.8333M31.6666 8.33334C38.3133 14.68 38.3533 25.3617 31.6666 31.6667M3.33325 24.9317V15.0667C3.33325 14.11 4.07992 13.3333 4.99992 13.3333H10.9766C11.1971 13.3326 11.4153 13.2871 11.6178 13.1998C11.8203 13.1124 12.003 12.9849 12.1549 12.825L17.1549 7.17834C18.2049 6.08501 19.9999 6.86001 19.9999 8.40501V31.595C19.9999 33.1517 18.1833 33.92 17.1399 32.805L12.1566 27.19C12.0042 27.0256 11.8197 26.8942 11.6144 26.8042C11.4091 26.7142 11.1874 26.6673 10.9633 26.6667H4.99992C4.07992 26.6667 3.33325 25.89 3.33325 24.9317Z" stroke="white" stroke-width="2" stroke-linecap="round" stroke-linejoin="round"/>
</svg>
